<svg id="countries" xmlns="http://www.w3.org/2000/svg" width="47.598" height="49.642" viewBox="0 0 47.598 49.642">
  <path id="Trazado_16" data-name="Trazado 16" d="M162.008,37.71a2.553,2.553,0,1,0-2.553-2.553A2.556,2.556,0,0,0,162.008,37.71Zm0-3.651a1.1,1.1,0,1,1-1.1,1.1,1.1,1.1,0,0,1,1.1-1.1Z" transform="translate(-145.017 -29.443)" fill="#ffdd67"/>
  <path id="Trazado_17" data-name="Trazado 17" d="M350.6,295.251a2.553,2.553,0,1,0-2.553-2.553A2.556,2.556,0,0,0,350.6,295.251Zm0-3.651a1.1,1.1,0,1,1-1.1,1.1A1.1,1.1,0,0,1,350.6,291.6Z" transform="translate(-315.322 -262.013)" fill="#ffdd67"/>
  <path id="Trazado_18" data-name="Trazado 18" d="M52.568,10.538a23.853,23.853,0,0,0-5.847-5.025.727.727,0,1,0-.758,1.241,22.393,22.393,0,0,1,5.164,4.339c-.51.717-.705,1.9-1.895,2a2.965,2.965,0,0,0-2.386,1.56l-.859,1.6c-.593,1.1-1.758.744-2.4.744a4.919,4.919,0,0,0-3.615,1.589,5.773,5.773,0,0,0-1.366,3.143,4.983,4.983,0,0,1-.694,2.029c-.074.109,0,0-2.048,2.738a2.087,2.087,0,0,0,.446,2.943l1.7,1.23A2.082,2.082,0,0,0,39.756,31l.35-.088h0q0,.123.009.246c.169,2.838,1.825,5.518,3.739,7.623a2.65,2.65,0,0,0,3.919,0l0,0a15.347,15.347,0,0,0,3.232-5.163l3.2,2.46A22.342,22.342,0,0,1,36.071,48.121c-.07-.356-1.156-1.8.093-2.69a2.893,2.893,0,0,0,1.216-2.356,3.917,3.917,0,0,0-.351-2.118,2.864,2.864,0,0,0-.432-.6l-1.13-1.2a1.446,1.446,0,0,1-.139-1.793l.3-.445a2.892,2.892,0,0,0-1.487-4.377l-3.28-1.077a.564.564,0,0,1-.312-.253L28.3,27.342a2.018,2.018,0,0,0-3.463-.046l-.538.872a.564.564,0,0,1-1.027-.438l1.165-4.461a.563.563,0,0,1,.287-.359L27.1,21.69a2.015,2.015,0,0,0,1.1-1.731,3.157,3.157,0,0,0-2.642-2.981,7.826,7.826,0,0,1-2.718-.7l-3.444-2.09a3.249,3.249,0,0,1-1.437-1.874l-.368-1.262a22.388,22.388,0,0,1,4.377-3.819,9.739,9.739,0,0,0,.32,1.236A15.45,15.45,0,0,0,25.772,14a2.65,2.65,0,0,0,3.722-.193c2.026-2.227,3.754-5.082,3.756-8.094v0a5.75,5.75,0,0,0-.424-2.165c.507-.034,1.015-.051,1.519-.051a22.181,22.181,0,0,1,9.005,1.889.727.727,0,0,0,.587-1.331,23.625,23.625,0,0,0-9.592-2.013c-.777,0-1.562.041-2.341.117A5.707,5.707,0,0,0,27.556,0,5.769,5.769,0,0,0,21.83,5.6a23.847,23.847,0,0,0-5.6,4.809l-.012.015A23.8,23.8,0,0,0,17.059,42.2a.727.727,0,1,0,1.056-1,22.345,22.345,0,0,1-1.641-28.777,4.787,4.787,0,0,0,2.165,3.009l3.444,2.09c1.378.837,2.955.665,3.717,1.049a1.769,1.769,0,0,1,.93,1.2.567.567,0,0,1-.293.621l-2.374,1.222A2.019,2.019,0,0,0,23.035,22.9l-1.165,4.46a2.019,2.019,0,0,0,3.671,1.568l.538-.873a.563.563,0,0,1,.967.013c2.375,4.08,2.254,3.891,2.349,4.025a2.016,2.016,0,0,0,1.016.749l3.28,1.077a1.437,1.437,0,0,1,.739,2.176c-.272.4-.337.482-.437.66a2.872,2.872,0,0,0,.413,3.392l1.13,1.2c.541.577.344,1.2.388,1.75a1.451,1.451,0,0,1-.6,1.141c-2.12,1.513-.8,3.917-.8,3.941h-.182a22.383,22.383,0,0,1-14.165-5.063.727.727,0,0,0-.923,1.124,23.838,23.838,0,0,0,15.087,5.394c.7,0,1.155-.029,1.293-.035.01,0,13.726-.127,20.148-13.426h0a23.57,23.57,0,0,0,2.357-10.338,23.819,23.819,0,0,0-5.574-15.3h0ZM27.535,1.454h.016a4.268,4.268,0,0,1,4.244,4.26c0,2.962-2.116,5.731-3.377,7.118a1.193,1.193,0,0,1-1.767,0C25,11.01,23.39,8.49,23.284,6.026V5.981s0,0,0,0a4.327,4.327,0,0,1,4.252-4.524ZM45.814,26.424h.021a4.268,4.268,0,0,1,4.244,4.26c0,2.586-1.626,5.192-3.377,7.118a1.193,1.193,0,0,1-1.767,0c-1.184-1.3-3.195-3.908-3.363-6.732a4.331,4.331,0,0,1,4.243-4.644Zm9.035,8.307-3.439-2.645a8.547,8.547,0,0,0,.123-1.4,5.725,5.725,0,0,0-5.693-5.714H45.82a5.717,5.717,0,0,0-5.533,4.392c-.88.229-1.12.345-1.422.127l-1.7-1.23a.634.634,0,0,1-.135-.894l1.957-2.611A6.059,6.059,0,0,0,40.04,22a4.393,4.393,0,0,1,1.009-2.431,3.46,3.46,0,0,1,2.543-1.118c.631,0,2.624.453,3.678-1.511l.859-1.6a1.521,1.521,0,0,1,1.221-.8,3.254,3.254,0,0,0,2.635-2l.133-.236a22.369,22.369,0,0,1,4.57,13.541,22.125,22.125,0,0,1-1.837,8.889Z" transform="translate(-10.544 0.001)" fill="#ffdd67"/>
</svg>
