<svg id="instagram" xmlns="http://www.w3.org/2000/svg" width="44" height="44" viewBox="0 0 44 44">
  <circle id="Elipse_10" data-name="Elipse 10" cx="4.62" cy="4.62" r="4.62" transform="translate(17.38 17.38)" fill="#fff"/>
  <path id="Trazado_12" data-name="Trazado 12" d="M28,6A22,22,0,1,0,50,28,22,22,0,0,0,28,6ZM41.592,33.592a8.324,8.324,0,0,1-2.218,5.662,8.477,8.477,0,0,1-5.723,2.194h-11.3a8.475,8.475,0,0,1-5.723-2.194,8.324,8.324,0,0,1-2.218-5.662V22.408a8.324,8.324,0,0,1,2.218-5.662,8.477,8.477,0,0,1,5.723-2.194h11.3a8.475,8.475,0,0,1,5.723,2.194,8.324,8.324,0,0,1,2.218,5.662Z" transform="translate(-6 -6)" fill="#fff"/>
  <path id="Trazado_13" data-name="Trazado 13" d="M146.267,131.551c-2.753-.076-8.264-.076-11.017,0a5.776,5.776,0,0,0-4.078,1.486,5.847,5.847,0,0,0-1.5,4.034c-.071,2.689,0,10.758,0,10.758a5.875,5.875,0,0,0,1.5,4.034,5.774,5.774,0,0,0,4.078,1.486c2.753.076,8.264.076,11.017,0a5.775,5.775,0,0,0,4.078-1.486,5.847,5.847,0,0,0,1.5-4.034V137.072a5.847,5.847,0,0,0-1.5-4.034A5.775,5.775,0,0,0,146.267,131.551Zm-5.509,18.061a7.161,7.161,0,1,1,7.161-7.161A7.161,7.161,0,0,1,140.758,149.612Zm7.191-12.844a1.432,1.432,0,1,1,1.433-1.432,1.432,1.432,0,0,1-1.433,1.432Z" transform="translate(-118.758 -120.451)" fill="#fff"/>
</svg>
