<svg xmlns="http://www.w3.org/2000/svg" width="47.232" height="53.834" viewBox="0 0 47.232 53.834">
  <g id="vodka_1_" data-name="vodka (1)" transform="translate(-31.395)">
    <g id="Grupo_124" data-name="Grupo 124" transform="translate(41.001 5.986)">
      <g id="Grupo_123" data-name="Grupo 123">
        <path id="Trazado_30" data-name="Trazado 30" d="M123.572,56.928a.814.814,0,0,0-.814.814v.482a.814.814,0,0,0,1.627,0v-.482A.814.814,0,0,0,123.572,56.928Z" transform="translate(-122.758 -56.928)" fill="#ffdd67"/>
      </g>
    </g>
    <g id="Grupo_126" data-name="Grupo 126" transform="translate(37.381 9.606)">
      <g id="Grupo_125" data-name="Grupo 125">
        <path id="Trazado_31" data-name="Trazado 31" d="M89.618,91.363h-.482a.814.814,0,0,0,0,1.627h.482a.814.814,0,0,0,0-1.627Z" transform="translate(-88.323 -91.363)" fill="#ffdd67"/>
      </g>
    </g>
    <g id="Grupo_128" data-name="Grupo 128" transform="translate(43.221 7.046)">
      <g id="Grupo_127" data-name="Grupo 127">
        <path id="Trazado_32" data-name="Trazado 32" d="M145.6,67.253a.814.814,0,0,0-1.151,0l-.341.341a.814.814,0,0,0,1.151,1.151l.341-.341A.814.814,0,0,0,145.6,67.253Z" transform="translate(-143.867 -67.014)" fill="#ffdd67"/>
      </g>
    </g>
    <g id="Grupo_130" data-name="Grupo 130" transform="translate(38.441 11.826)">
      <g id="Grupo_129" data-name="Grupo 129">
        <path id="Trazado_33" data-name="Trazado 33" d="M100.138,112.713a.814.814,0,0,0-1.151,0l-.341.341A.814.814,0,0,0,99.8,114.2l.341-.341A.814.814,0,0,0,100.138,112.713Z" transform="translate(-98.409 -112.474)" fill="#ffdd67"/>
      </g>
    </g>
    <g id="Grupo_132" data-name="Grupo 132" transform="translate(38.441 7.046)">
      <g id="Grupo_131" data-name="Grupo 131">
        <path id="Trazado_34" data-name="Trazado 34" d="M100.138,67.593l-.341-.341A.814.814,0,0,0,98.647,68.4l.341.341a.814.814,0,1,0,1.151-1.151Z" transform="translate(-98.409 -67.014)" fill="#ffdd67"/>
      </g>
    </g>
    <g id="Grupo_135" data-name="Grupo 135" transform="translate(31.395)">
      <g id="Grupo_134" data-name="Grupo 134">
        <g id="Grupo_133" data-name="Grupo 133">
          <path id="Trazado_35" data-name="Trazado 35" d="M407.289,459.3h0Z" transform="translate(-367.765 -411.005)" fill="#ffdd67"/>
          <path id="Trazado_36" data-name="Trazado 36" d="M78.2,10.117a1.6,1.6,0,0,0-1.17-.51H52.2A10.42,10.42,0,1,0,41.779,20.84l2.149,28.716a4.642,4.642,0,0,0,4.61,4.278H71.151a4.643,4.643,0,0,0,4.61-4.278l2.862-38.235A1.6,1.6,0,0,0,78.2,10.117Zm-36.713,0a1.6,1.6,0,0,0-.422,1.2l.357,4.773a5.692,5.692,0,0,1-4.9-7.781.814.814,0,0,0-1.512-.6A7.319,7.319,0,0,0,41.546,17.73l.111,1.479a8.791,8.791,0,1,1,8.912-9.6H49.085A7.317,7.317,0,0,0,37.71,4.362a.814.814,0,0,0,.914,1.346,5.69,5.69,0,0,1,8.821,3.9H42.658A1.6,1.6,0,0,0,41.488,10.117Zm1.2,1.117h4.753a5.7,5.7,0,0,1-4.4,4.74Zm.477,6.375a7.331,7.331,0,0,0,5.916-6.375h1.483a8.808,8.808,0,0,1-7.289,7.855Zm1.173,15.673-.006-.081c0-.008,0-.016,0-.022a.287.287,0,0,1,.113-.19l5.42-4.031,4.031,5.42a.288.288,0,0,1-.059.4l-5.42,4.031-4.031-5.42A.277.277,0,0,1,44.342,33.282Zm10.866.126-3.519-4.733.788.019a.415.415,0,0,1,.32.162l3.838,4.967a1.785,1.785,0,0,1-.36,2.533L52.7,38.965a.73.73,0,0,1-.428.142l-1.536.012,4.075-3.03a1.916,1.916,0,0,0,.394-2.681Zm18.93,16.027a3.008,3.008,0,0,1-2.987,2.772H48.538a3.008,3.008,0,0,1-2.987-2.772l-.178-2.379a5.3,5.3,0,0,0,3.4,1.237H70.919s0,0,0,0a5.3,5.3,0,0,0,3.4-1.237ZM67.5,40.951l-3.519-4.733.788.019a.415.415,0,0,1,.32.162l3.838,4.967a1.785,1.785,0,0,1-.36,2.533L65,46.508a.73.73,0,0,1-.428.142l-1.536.012,4.075-3.03a1.916,1.916,0,0,0,.394-2.681Zm-1.306.971a.288.288,0,0,1-.059.4l-5.42,4.031-4.031-5.42a.289.289,0,0,1,.059-.4l5.42-4.031ZM76.4,19.213H54.313a.814.814,0,0,0,0,1.627H76.278L74.6,43.249a3.657,3.657,0,0,1-.53,1.641,3.707,3.707,0,0,1-3.151,1.775H67.542l1.988-1.452a3.413,3.413,0,0,0,.687-4.842L66.379,35.4a2.036,2.036,0,0,0-1.567-.794l-2.458-.061h-.012a.813.813,0,0,0-.494.16l-6.073,4.516a1.916,1.916,0,0,0-.394,2.681l3.538,4.758H48.77a3.7,3.7,0,0,1-2.987-1.531,3.662,3.662,0,0,1-.695-1.885l-.515-6.885L47.6,40.437h0a.8.8,0,0,0,.073.084l.018.018a.81.81,0,0,0,.084.071l.012.008a.792.792,0,0,0,.085.052l.02.011a.826.826,0,0,0,.1.042l.023.007a.824.824,0,0,0,.1.024l.016,0h.006a.812.812,0,0,0,.117.009h.008l4.026-.032a2.35,2.35,0,0,0,1.375-.455l3.572-2.609a3.413,3.413,0,0,0,.687-4.842l-3.838-4.967a2.036,2.036,0,0,0-1.567-.794l-2.458-.061h-.014a.808.808,0,0,0-.089,0l-.02,0a.807.807,0,0,0-.1.02h0a.826.826,0,0,0-.1.033l-.016.007a.809.809,0,0,0-.165.094l-5.37,3.993-.772-10.32h7.115a.814.814,0,0,0,0-1.627H47.4a10.429,10.429,0,0,0,4.8-7.979H77Z" transform="translate(-31.395)" fill="#ffdd67"/>
        </g>
      </g>
    </g>
    <g id="Grupo_137" data-name="Grupo 137" transform="translate(57.289 21.939)">
      <g id="Grupo_136" data-name="Grupo 136">
        <path id="Trazado_37" data-name="Trazado 37" d="M290.367,214.493l-2.471-4.535a1.819,1.819,0,0,0-1.27-.922l-1.989-.37-.015,0a.793.793,0,0,0-.083-.009l-.026,0a.8.8,0,0,0-.1,0l-.017,0c-.028,0-.055.008-.083.014l-.028.007a.815.815,0,0,0-.085.027l-.011,0a.8.8,0,0,0-.076.035l-5.523,2.878a1.721,1.721,0,0,0-.731,2.321l2.878,5.522h0l.008.012a.829.829,0,0,0,.057.091c.006.009.014.016.021.025a.8.8,0,0,0,.058.067l.028.026c.02.018.04.036.062.053l.036.025c.021.014.042.027.064.039l.042.021c.023.011.046.02.069.028l.043.015a.844.844,0,0,0,.086.02l.026.006,3.275.5a2.113,2.113,0,0,0,.317.024,2.075,2.075,0,0,0,.946-.229l3.242-1.654a2.952,2.952,0,0,0,1.25-4.042Zm-11.065-1.3a.093.093,0,0,1,.04-.126l4.8-2.5,2.5,4.8a.091.091,0,0,1,.01.036s0,0,0,0a.094.094,0,0,1,0,.031v0a.09.09,0,0,1-.016.029l-.009.007a.088.088,0,0,1-.02.016h0l-4.8,2.5Zm9.738,3.106a1.314,1.314,0,0,1-.663.788l-3.242,1.654a.46.46,0,0,1-.279.045l-.813-.124,3.079-1.6.235-.123a1.723,1.723,0,0,0,.731-2.321l-2.106-4.041.346.064a.2.2,0,0,1,.138.1l2.471,4.535A1.314,1.314,0,0,1,289.04,216.3Z" transform="translate(-277.664 -208.653)" fill="#ffdd67"/>
      </g>
    </g>
  </g>
</svg>
