<svg id="youtube" xmlns="http://www.w3.org/2000/svg" width="44" height="44" viewBox="0 0 44 44">
  <path id="Trazado_14" data-name="Trazado 14" d="M221.911,201.623l-8.852-4.426a.443.443,0,0,0-.641.4v8.852a.443.443,0,0,0,.641.4l8.852-4.426a.443.443,0,0,0,0-.792Z" transform="translate(-194.253 -180.329)" fill="#fff"/>
  <path id="Trazado_15" data-name="Trazado 15" d="M28,6A22,22,0,1,0,50,28,22,22,0,0,0,28,6ZM43.335,35.382a4,4,0,0,1-3.446,3.043A104.344,104.344,0,0,1,28,38.875a104.847,104.847,0,0,1-11.889-.451,4,4,0,0,1-3.446-3.043A31.539,31.539,0,0,1,12.09,28a31.778,31.778,0,0,1,.574-7.382,4,4,0,0,1,3.446-3.043A104.323,104.323,0,0,1,28,17.124a104.827,104.827,0,0,1,11.889.451,4,4,0,0,1,3.446,3.043A31.778,31.778,0,0,1,43.91,28,31.777,31.777,0,0,1,43.335,35.382Z" transform="translate(-6 -6)" fill="#fff"/>
</svg>
